<mxfile host="app.diagrams.net" modified="2024-04-15T16:47:37.614Z" agent="Mozilla/5.0 (Windows NT 10.0; Win64; x64) AppleWebKit/537.36 (KHTML, like Gecko) Chrome/123.0.0.0 Safari/537.36" etag="LAV64gsukisZN6k3AeqX" version="24.2.3" type="github">
  <diagram name="PÃ¡gina-1" id="lY3GMPpas5Dbr6yVs7Ak">
    <mxGraphModel dx="1674" dy="822" grid="1" gridSize="10" guides="1" tooltips="1" connect="1" arrows="1" fold="1" page="1" pageScale="1" pageWidth="1169" pageHeight="827" math="0" shadow="0">
      <root>
        <mxCell id="0" />
        <mxCell id="1" parent="0" />
        <mxCell id="162rXYACJ4V5PbVNqog7-15" value="&lt;p style=&quot;margin: 0px; font-variant-numeric: normal; font-variant-east-asian: normal; font-variant-alternates: normal; font-kerning: auto; font-optical-sizing: auto; font-feature-settings: normal; font-variation-settings: normal; font-variant-position: normal; font-stretch: normal; line-height: normal; text-align: start;&quot; class=&quot;p1&quot;&gt;&lt;font style=&quot;font-size: 20px;&quot;&gt;Novo Mind e-Shop&lt;/font&gt;&lt;/p&gt;" style="rounded=0;whiteSpace=wrap;html=1;fontColor=default;fillColor=none;labelPosition=center;verticalLabelPosition=top;align=center;verticalAlign=bottom;dashed=1;dashPattern=12 12;" parent="1" vertex="1">
          <mxGeometry x="630" y="102" width="480" height="158" as="geometry" />
        </mxCell>
        <mxCell id="162rXYACJ4V5PbVNqog7-14" value="&lt;font style=&quot;font-size: 20px;&quot;&gt;VTP&lt;/font&gt;" style="rounded=0;whiteSpace=wrap;html=1;fontColor=default;fillColor=none;labelPosition=center;verticalLabelPosition=top;align=center;verticalAlign=bottom;dashed=1;dashPattern=12 12;" parent="1" vertex="1">
          <mxGeometry x="180" y="101" width="360" height="158" as="geometry" />
        </mxCell>
        <mxCell id="162rXYACJ4V5PbVNqog7-6" value="" style="edgeStyle=orthogonalEdgeStyle;rounded=0;orthogonalLoop=1;jettySize=auto;html=1;" parent="1" source="162rXYACJ4V5PbVNqog7-3" target="162rXYACJ4V5PbVNqog7-5" edge="1">
          <mxGeometry relative="1" as="geometry" />
        </mxCell>
        <mxCell id="162rXYACJ4V5PbVNqog7-8" value="" style="edgeStyle=orthogonalEdgeStyle;rounded=0;orthogonalLoop=1;jettySize=auto;html=1;" parent="1" source="162rXYACJ4V5PbVNqog7-5" target="162rXYACJ4V5PbVNqog7-7" edge="1">
          <mxGeometry relative="1" as="geometry" />
        </mxCell>
        <mxCell id="162rXYACJ4V5PbVNqog7-5" value="Enter&lt;br&gt;Personal Data" style="rounded=1;whiteSpace=wrap;html=1;fillColor=#dae8fc;strokeColor=#6c8ebf;" parent="1" vertex="1">
          <mxGeometry x="660" y="151" width="100" height="60" as="geometry" />
        </mxCell>
        <mxCell id="162rXYACJ4V5PbVNqog7-10" value="" style="edgeStyle=orthogonalEdgeStyle;rounded=0;orthogonalLoop=1;jettySize=auto;html=1;" parent="1" source="162rXYACJ4V5PbVNqog7-7" target="162rXYACJ4V5PbVNqog7-9" edge="1">
          <mxGeometry relative="1" as="geometry" />
        </mxCell>
        <mxCell id="162rXYACJ4V5PbVNqog7-7" value="Select Delivery Dealer&lt;div&gt;&lt;span style=&quot;background-color: initial;&quot;&gt;(If Required)&lt;/span&gt;&lt;/div&gt;" style="rounded=1;whiteSpace=wrap;html=1;fillColor=#dae8fc;strokeColor=#6c8ebf;" parent="1" vertex="1">
          <mxGeometry x="820" y="151" width="100" height="60" as="geometry" />
        </mxCell>
        <mxCell id="162rXYACJ4V5PbVNqog7-42" style="edgeStyle=orthogonalEdgeStyle;rounded=0;orthogonalLoop=1;jettySize=auto;html=1;entryX=0.5;entryY=0;entryDx=0;entryDy=0;" parent="1" source="162rXYACJ4V5PbVNqog7-9" target="162rXYACJ4V5PbVNqog7-32" edge="1">
          <mxGeometry relative="1" as="geometry" />
        </mxCell>
        <mxCell id="162rXYACJ4V5PbVNqog7-9" value="SubmitOrder" style="rounded=1;whiteSpace=wrap;html=1;fillColor=#dae8fc;strokeColor=#6c8ebf;" parent="1" vertex="1">
          <mxGeometry x="980" y="151" width="100" height="60" as="geometry" />
        </mxCell>
        <mxCell id="162rXYACJ4V5PbVNqog7-3" value="&lt;p style=&quot;margin: 0px; font-variant-numeric: normal; font-variant-east-asian: normal; font-variant-alternates: normal; font-kerning: auto; font-optical-sizing: auto; font-feature-settings: normal; font-variation-settings: normal; font-variant-position: normal; font-stretch: normal; font-size: 12px; line-height: normal; text-align: start;&quot; class=&quot;p1&quot;&gt;Select Vehicle&lt;/p&gt;" style="rounded=1;whiteSpace=wrap;html=1;fontSize=12;fillColor=#ffe6cc;strokeColor=#d79b00;" parent="1" vertex="1">
          <mxGeometry x="380" y="151" width="100" height="60" as="geometry" />
        </mxCell>
        <mxCell id="162rXYACJ4V5PbVNqog7-4" style="edgeStyle=orthogonalEdgeStyle;rounded=0;orthogonalLoop=1;jettySize=auto;html=1;entryX=0;entryY=0.5;entryDx=0;entryDy=0;" parent="1" source="162rXYACJ4V5PbVNqog7-1" target="162rXYACJ4V5PbVNqog7-3" edge="1">
          <mxGeometry relative="1" as="geometry" />
        </mxCell>
        <mxCell id="162rXYACJ4V5PbVNqog7-1" value="&lt;p style=&quot;margin: 0px; font-variant-numeric: normal; font-variant-east-asian: normal; font-variant-alternates: normal; font-kerning: auto; font-optical-sizing: auto; font-feature-settings: normal; font-variation-settings: normal; font-variant-position: normal; font-stretch: normal; font-size: 12px; line-height: normal; text-align: start;&quot; class=&quot;p1&quot;&gt;Search Vehicles&lt;/p&gt;" style="rounded=1;whiteSpace=wrap;html=1;fontSize=12;fillColor=#ffe6cc;strokeColor=#d79b00;" parent="1" vertex="1">
          <mxGeometry x="220" y="151" width="100" height="60" as="geometry" />
        </mxCell>
        <mxCell id="162rXYACJ4V5PbVNqog7-19" value="" style="shape=image;html=1;verticalAlign=top;verticalLabelPosition=bottom;labelBackgroundColor=#ffffff;imageAspect=0;aspect=fixed;image=https://cdn2.iconfinder.com/data/icons/boxicons-solid-vol-2/24/bxs-file-pdf-128.png" parent="1" vertex="1">
          <mxGeometry x="666" y="200" width="50" height="50" as="geometry" />
        </mxCell>
        <mxCell id="162rXYACJ4V5PbVNqog7-20" value="" style="shape=image;html=1;verticalAlign=top;verticalLabelPosition=bottom;labelBackgroundColor=#ffffff;imageAspect=0;aspect=fixed;image=https://cdn2.iconfinder.com/data/icons/boxicons-solid-vol-2/24/bxs-file-jpg-128.png" parent="1" vertex="1">
          <mxGeometry x="705" y="200" width="50" height="50" as="geometry" />
        </mxCell>
        <mxCell id="162rXYACJ4V5PbVNqog7-21" value="&lt;p style=&quot;margin: 0px; font-variant-numeric: normal; font-variant-east-asian: normal; font-variant-alternates: normal; font-kerning: auto; font-optical-sizing: auto; font-feature-settings: normal; font-variation-settings: normal; font-variant-position: normal; font-stretch: normal; line-height: normal; text-align: start;&quot; class=&quot;p1&quot;&gt;&lt;font style=&quot;font-size: 24px;&quot;&gt;&lt;b&gt;CUSTOMER&lt;/b&gt;&lt;/font&gt;&lt;/p&gt;" style="text;html=1;align=center;verticalAlign=middle;whiteSpace=wrap;rounded=0;textDirection=vertical-lr;rotation=-180;" parent="1" vertex="1">
          <mxGeometry x="10" y="230" width="160" height="70" as="geometry" />
        </mxCell>
        <mxCell id="162rXYACJ4V5PbVNqog7-48" style="edgeStyle=orthogonalEdgeStyle;rounded=0;orthogonalLoop=1;jettySize=auto;html=1;entryX=0.5;entryY=0;entryDx=0;entryDy=0;" parent="1" source="162rXYACJ4V5PbVNqog7-22" target="162rXYACJ4V5PbVNqog7-35" edge="1">
          <mxGeometry relative="1" as="geometry" />
        </mxCell>
        <mxCell id="162rXYACJ4V5PbVNqog7-22" value="&lt;p style=&quot;margin: 0px; font-variant-numeric: normal; font-variant-east-asian: normal; font-variant-alternates: normal; font-kerning: auto; font-optical-sizing: auto; font-feature-settings: normal; font-variation-settings: normal; font-variant-position: normal; font-stretch: normal; line-height: normal;&quot; class=&quot;p1&quot;&gt;&lt;font style=&quot;font-size: 11px;&quot;&gt;PAY BOLETO ONLINE OR OFFLINE&lt;/font&gt;&lt;/p&gt;" style="rounded=1;whiteSpace=wrap;html=1;align=center;" parent="1" vertex="1">
          <mxGeometry x="1620" y="150" width="100" height="60" as="geometry" />
        </mxCell>
        <mxCell id="162rXYACJ4V5PbVNqog7-23" value="&lt;p style=&quot;margin: 0px; font-variant-numeric: normal; font-variant-east-asian: normal; font-variant-alternates: normal; font-kerning: auto; font-optical-sizing: auto; font-feature-settings: normal; font-variation-settings: normal; font-variant-position: normal; font-stretch: normal; line-height: normal;&quot; class=&quot;p1&quot;&gt;&lt;font style=&quot;font-size: 12px;&quot;&gt;RECEIVE INVOICE&lt;/font&gt;&lt;/p&gt;" style="rounded=1;whiteSpace=wrap;html=1;align=center;strokeColor=default;verticalAlign=middle;fontFamily=Helvetica;fontSize=12;fontColor=default;fillColor=default;" parent="1" vertex="1">
          <mxGeometry x="1780" y="151" width="100" height="60" as="geometry" />
        </mxCell>
        <mxCell id="162rXYACJ4V5PbVNqog7-25" value="&lt;p style=&quot;margin: 0px; font-variant-numeric: normal; font-variant-east-asian: normal; font-variant-alternates: normal; font-kerning: auto; font-optical-sizing: auto; font-feature-settings: normal; font-variation-settings: normal; font-variant-position: normal; font-stretch: normal; line-height: normal;&quot; class=&quot;p1&quot;&gt;&lt;font style=&quot;font-size: 12px;&quot;&gt;RECEIVE ORDER CANCELATION MAIL&lt;/font&gt;&lt;/p&gt;" style="rounded=1;whiteSpace=wrap;html=1;align=center;" parent="1" vertex="1">
          <mxGeometry x="980" y="310" width="100" height="60" as="geometry" />
        </mxCell>
        <mxCell id="162rXYACJ4V5PbVNqog7-26" value="Receive Order Creation Mail" style="rounded=1;align=center;whiteSpace=wrap;html=1;" parent="1" vertex="1">
          <mxGeometry x="1300" y="310" width="100" height="60" as="geometry" />
        </mxCell>
        <mxCell id="162rXYACJ4V5PbVNqog7-28" style="edgeStyle=orthogonalEdgeStyle;rounded=0;orthogonalLoop=1;jettySize=auto;html=1;entryX=0;entryY=0.5;entryDx=0;entryDy=0;" parent="1" source="162rXYACJ4V5PbVNqog7-27" target="162rXYACJ4V5PbVNqog7-22" edge="1">
          <mxGeometry relative="1" as="geometry" />
        </mxCell>
        <mxCell id="162rXYACJ4V5PbVNqog7-27" value="&lt;p style=&quot;margin: 0px; font-variant-numeric: normal; font-variant-east-asian: normal; font-variant-alternates: normal; font-kerning: auto; font-optical-sizing: auto; font-feature-settings: normal; font-variation-settings: normal; font-variant-position: normal; font-stretch: normal; line-height: normal;&quot; class=&quot;p1&quot;&gt;&lt;font style=&quot;font-size: 12px;&quot;&gt;RECEIVE ORDER CONFIRMATION MAIL&lt;/font&gt;&lt;/p&gt;" style="rounded=1;align=center;whiteSpace=wrap;html=1;" parent="1" vertex="1">
          <mxGeometry x="1460" y="310" width="100" height="60" as="geometry" />
        </mxCell>
        <mxCell id="162rXYACJ4V5PbVNqog7-29" value="" style="shape=image;verticalLabelPosition=bottom;labelBackgroundColor=default;verticalAlign=top;aspect=fixed;imageAspect=0;image=https://cdn.icon-icons.com/icons2/2699/PNG/512/mulesoft_logo_icon_170933.png;" parent="1" vertex="1">
          <mxGeometry x="1009" y="200" width="42" height="42" as="geometry" />
        </mxCell>
        <mxCell id="162rXYACJ4V5PbVNqog7-30" value="&lt;p style=&quot;margin: 0px; font-variant-numeric: normal; font-variant-east-asian: normal; font-variant-alternates: normal; font-kerning: auto; font-optical-sizing: auto; font-feature-settings: normal; font-variation-settings: normal; font-variant-position: normal; font-stretch: normal; line-height: normal;&quot; class=&quot;p1&quot;&gt;&lt;font style=&quot;font-size: 12px;&quot;&gt;RELEASE VEHICLE&lt;/font&gt;&lt;/p&gt;" style="rounded=1;whiteSpace=wrap;html=1;align=center;fillColor=#d5e8d4;strokeColor=#82b366;" parent="1" vertex="1">
          <mxGeometry x="820" y="510" width="100" height="60" as="geometry" />
        </mxCell>
        <mxCell id="162rXYACJ4V5PbVNqog7-40" style="edgeStyle=orthogonalEdgeStyle;rounded=0;orthogonalLoop=1;jettySize=auto;html=1;entryX=0.5;entryY=1;entryDx=0;entryDy=0;" parent="1" source="162rXYACJ4V5PbVNqog7-31" target="162rXYACJ4V5PbVNqog7-25" edge="1">
          <mxGeometry relative="1" as="geometry" />
        </mxCell>
        <mxCell id="162rXYACJ4V5PbVNqog7-44" style="edgeStyle=orthogonalEdgeStyle;rounded=0;orthogonalLoop=1;jettySize=auto;html=1;entryX=1;entryY=0.5;entryDx=0;entryDy=0;" parent="1" source="162rXYACJ4V5PbVNqog7-31" target="162rXYACJ4V5PbVNqog7-30" edge="1">
          <mxGeometry relative="1" as="geometry" />
        </mxCell>
        <mxCell id="162rXYACJ4V5PbVNqog7-31" value="&lt;p style=&quot;margin: 0px; font-variant-numeric: normal; font-variant-east-asian: normal; font-variant-alternates: normal; font-kerning: auto; font-optical-sizing: auto; font-feature-settings: normal; font-variation-settings: normal; font-variant-position: normal; font-stretch: normal; line-height: normal;&quot; class=&quot;p1&quot;&gt;&lt;font style=&quot;font-size: 12px;&quot;&gt;SEND ORDER CANCELATION MAIL&lt;/font&gt;&lt;/p&gt;" style="rounded=1;whiteSpace=wrap;html=1;align=center;fillColor=#e1d5e7;strokeColor=#9673a6;" parent="1" vertex="1">
          <mxGeometry x="980" y="510" width="100" height="60" as="geometry" />
        </mxCell>
        <mxCell id="162rXYACJ4V5PbVNqog7-43" style="edgeStyle=orthogonalEdgeStyle;rounded=0;orthogonalLoop=1;jettySize=auto;html=1;entryX=0.5;entryY=0;entryDx=0;entryDy=0;" parent="1" source="162rXYACJ4V5PbVNqog7-32" target="162rXYACJ4V5PbVNqog7-38" edge="1">
          <mxGeometry relative="1" as="geometry" />
        </mxCell>
        <mxCell id="162rXYACJ4V5PbVNqog7-32" value="&lt;p style=&quot;margin: 0px; font-variant-numeric: normal; font-variant-east-asian: normal; font-variant-alternates: normal; font-kerning: auto; font-optical-sizing: auto; font-feature-settings: normal; font-variation-settings: normal; font-variant-position: normal; font-stretch: normal; line-height: normal;&quot; class=&quot;p1&quot;&gt;&lt;font style=&quot;font-size: 12px;&quot;&gt;RESERVE VEHICLE&lt;/font&gt;&lt;/p&gt;" style="rounded=1;whiteSpace=wrap;html=1;align=center;fillColor=#d5e8d4;strokeColor=#82b366;" parent="1" vertex="1">
          <mxGeometry x="1140" y="510" width="100" height="60" as="geometry" />
        </mxCell>
        <mxCell id="162rXYACJ4V5PbVNqog7-87" style="edgeStyle=orthogonalEdgeStyle;rounded=0;orthogonalLoop=1;jettySize=auto;html=1;entryX=0.5;entryY=1;entryDx=0;entryDy=0;" parent="1" source="162rXYACJ4V5PbVNqog7-33" target="162rXYACJ4V5PbVNqog7-26" edge="1">
          <mxGeometry relative="1" as="geometry" />
        </mxCell>
        <mxCell id="162rXYACJ4V5PbVNqog7-33" value="&lt;p style=&quot;margin: 0px; font-variant-numeric: normal; font-variant-east-asian: normal; font-variant-alternates: normal; font-kerning: auto; font-optical-sizing: auto; font-feature-settings: normal; font-variation-settings: normal; font-variant-position: normal; font-stretch: normal; line-height: normal;&quot; class=&quot;p1&quot;&gt;&lt;font style=&quot;font-size: 12px;&quot;&gt;Send Order Creation email&lt;/font&gt;&lt;/p&gt;" style="rounded=1;whiteSpace=wrap;html=1;align=center;fillColor=#e1d5e7;strokeColor=#9673a6;" parent="1" vertex="1">
          <mxGeometry x="1300" y="510" width="100" height="60" as="geometry" />
        </mxCell>
        <mxCell id="162rXYACJ4V5PbVNqog7-89" style="edgeStyle=orthogonalEdgeStyle;rounded=0;orthogonalLoop=1;jettySize=auto;html=1;entryX=0.5;entryY=1;entryDx=0;entryDy=0;" parent="1" source="162rXYACJ4V5PbVNqog7-34" target="162rXYACJ4V5PbVNqog7-27" edge="1">
          <mxGeometry relative="1" as="geometry" />
        </mxCell>
        <mxCell id="162rXYACJ4V5PbVNqog7-34" value="&lt;p style=&quot;margin: 0px; font-variant-numeric: normal; font-variant-east-asian: normal; font-variant-alternates: normal; font-kerning: auto; font-optical-sizing: auto; font-feature-settings: normal; font-variation-settings: normal; font-variant-position: normal; font-stretch: normal; line-height: normal;&quot; class=&quot;p1&quot;&gt;&lt;font style=&quot;font-size: 12px;&quot;&gt;SEND ORDER CONFIRMATION MAIL&lt;/font&gt;&lt;/p&gt;" style="rounded=1;whiteSpace=wrap;html=1;align=center;fillColor=#e1d5e7;strokeColor=#9673a6;" parent="1" vertex="1">
          <mxGeometry x="1460" y="510" width="100" height="60" as="geometry" />
        </mxCell>
        <mxCell id="162rXYACJ4V5PbVNqog7-49" style="edgeStyle=orthogonalEdgeStyle;rounded=0;orthogonalLoop=1;jettySize=auto;html=1;entryX=0;entryY=0.5;entryDx=0;entryDy=0;" parent="1" source="162rXYACJ4V5PbVNqog7-35" target="162rXYACJ4V5PbVNqog7-36" edge="1">
          <mxGeometry relative="1" as="geometry" />
        </mxCell>
        <mxCell id="162rXYACJ4V5PbVNqog7-35" value="&lt;p style=&quot;margin: 0px; font-variant-numeric: normal; font-variant-east-asian: normal; font-variant-alternates: normal; font-kerning: auto; font-optical-sizing: auto; font-feature-settings: normal; font-variation-settings: normal; font-variant-position: normal; font-stretch: normal; line-height: normal;&quot; class=&quot;p1&quot;&gt;&lt;font style=&quot;font-size: 12px;&quot;&gt;PROCESS PAYMENT&lt;/font&gt;&lt;/p&gt;" style="rounded=1;whiteSpace=wrap;html=1;align=center;fillColor=#fff2cc;strokeColor=#d6b656;" parent="1" vertex="1">
          <mxGeometry x="1620" y="510" width="100" height="60" as="geometry" />
        </mxCell>
        <mxCell id="162rXYACJ4V5PbVNqog7-50" style="edgeStyle=orthogonalEdgeStyle;rounded=0;orthogonalLoop=1;jettySize=auto;html=1;entryX=0.5;entryY=1;entryDx=0;entryDy=0;" parent="1" source="162rXYACJ4V5PbVNqog7-36" target="162rXYACJ4V5PbVNqog7-23" edge="1">
          <mxGeometry relative="1" as="geometry" />
        </mxCell>
        <mxCell id="162rXYACJ4V5PbVNqog7-69" style="edgeStyle=orthogonalEdgeStyle;rounded=0;orthogonalLoop=1;jettySize=auto;html=1;entryX=0.5;entryY=0;entryDx=0;entryDy=0;" parent="1" source="162rXYACJ4V5PbVNqog7-36" target="162rXYACJ4V5PbVNqog7-60" edge="1">
          <mxGeometry relative="1" as="geometry" />
        </mxCell>
        <mxCell id="162rXYACJ4V5PbVNqog7-36" value="&lt;p style=&quot;margin: 0px; font-variant-numeric: normal; font-variant-east-asian: normal; font-variant-alternates: normal; font-kerning: auto; font-optical-sizing: auto; font-feature-settings: normal; font-variation-settings: normal; font-variant-position: normal; font-stretch: normal; line-height: normal;&quot; class=&quot;p1&quot;&gt;&lt;font style=&quot;font-size: 12px;&quot;&gt;GENERATE INVOICE&lt;/font&gt;&lt;/p&gt;" style="rounded=1;whiteSpace=wrap;html=1;align=center;" parent="1" vertex="1">
          <mxGeometry x="1780" y="510" width="100" height="60" as="geometry" />
        </mxCell>
        <mxCell id="162rXYACJ4V5PbVNqog7-62" style="edgeStyle=orthogonalEdgeStyle;rounded=0;orthogonalLoop=1;jettySize=auto;html=1;" parent="1" source="162rXYACJ4V5PbVNqog7-38" target="162rXYACJ4V5PbVNqog7-55" edge="1">
          <mxGeometry relative="1" as="geometry" />
        </mxCell>
        <mxCell id="162rXYACJ4V5PbVNqog7-86" style="edgeStyle=orthogonalEdgeStyle;rounded=0;orthogonalLoop=1;jettySize=auto;html=1;entryX=0.5;entryY=1;entryDx=0;entryDy=0;" parent="1" source="162rXYACJ4V5PbVNqog7-38" target="162rXYACJ4V5PbVNqog7-33" edge="1">
          <mxGeometry relative="1" as="geometry" />
        </mxCell>
        <mxCell id="162rXYACJ4V5PbVNqog7-38" value="&lt;p style=&quot;margin: 0px; font-variant-numeric: normal; font-variant-east-asian: normal; font-variant-alternates: normal; font-kerning: auto; font-optical-sizing: auto; font-feature-settings: normal; font-variation-settings: normal; font-variant-position: normal; font-stretch: normal; line-height: normal;&quot; class=&quot;p1&quot;&gt;&lt;font style=&quot;font-size: 12px;&quot;&gt;Order Created âInValidationâ&lt;/font&gt;&lt;/p&gt;" style="rounded=1;whiteSpace=wrap;html=1;align=center;fillColor=#d5e8d4;strokeColor=#82b366;" parent="1" vertex="1">
          <mxGeometry x="1140" y="620" width="100" height="60" as="geometry" />
        </mxCell>
        <mxCell id="162rXYACJ4V5PbVNqog7-88" style="edgeStyle=orthogonalEdgeStyle;rounded=0;orthogonalLoop=1;jettySize=auto;html=1;entryX=0.5;entryY=1;entryDx=0;entryDy=0;" parent="1" source="162rXYACJ4V5PbVNqog7-39" target="162rXYACJ4V5PbVNqog7-34" edge="1">
          <mxGeometry relative="1" as="geometry" />
        </mxCell>
        <mxCell id="162rXYACJ4V5PbVNqog7-39" value="&lt;p style=&quot;margin: 0px; font-variant-numeric: normal; font-variant-east-asian: normal; font-variant-alternates: normal; font-kerning: auto; font-optical-sizing: auto; font-feature-settings: normal; font-variation-settings: normal; font-variant-position: normal; font-stretch: normal; line-height: normal;&quot; class=&quot;p1&quot;&gt;&lt;font style=&quot;font-size: 12px;&quot;&gt;Generate&lt;br&gt;Boleto PDF&lt;/font&gt;&lt;/p&gt;" style="rounded=1;whiteSpace=wrap;html=1;align=center;fillColor=#fff2cc;strokeColor=#d6b656;" parent="1" vertex="1">
          <mxGeometry x="1460" y="620" width="100" height="60" as="geometry" />
        </mxCell>
        <mxCell id="162rXYACJ4V5PbVNqog7-52" value="" style="endArrow=none;dashed=1;html=1;rounded=0;" parent="1" edge="1">
          <mxGeometry width="50" height="50" relative="1" as="geometry">
            <mxPoint x="80" y="440" as="sourcePoint" />
            <mxPoint x="2400" y="440" as="targetPoint" />
          </mxGeometry>
        </mxCell>
        <mxCell id="162rXYACJ4V5PbVNqog7-53" value="&lt;p style=&quot;margin: 0px; font-variant-numeric: normal; font-variant-east-asian: normal; font-variant-alternates: normal; font-kerning: auto; font-optical-sizing: auto; font-feature-settings: normal; font-variation-settings: normal; font-variant-position: normal; font-stretch: normal; line-height: normal; text-align: start;&quot; class=&quot;p1&quot;&gt;&lt;font style=&quot;font-size: 24px;&quot;&gt;&lt;b&gt;NSC ( Seller)&lt;/b&gt;&lt;/font&gt;&lt;/p&gt;" style="text;html=1;align=center;verticalAlign=middle;whiteSpace=wrap;rounded=0;textDirection=vertical-lr;rotation=-180;" parent="1" vertex="1">
          <mxGeometry x="10" y="480" width="160" height="180" as="geometry" />
        </mxCell>
        <mxCell id="162rXYACJ4V5PbVNqog7-54" value="" style="endArrow=none;dashed=1;html=1;rounded=0;" parent="1" edge="1">
          <mxGeometry width="50" height="50" relative="1" as="geometry">
            <mxPoint x="80" y="750" as="sourcePoint" />
            <mxPoint x="2400" y="750" as="targetPoint" />
          </mxGeometry>
        </mxCell>
        <mxCell id="162rXYACJ4V5PbVNqog7-63" style="edgeStyle=orthogonalEdgeStyle;rounded=0;orthogonalLoop=1;jettySize=auto;html=1;entryX=0;entryY=0.5;entryDx=0;entryDy=0;" parent="1" source="162rXYACJ4V5PbVNqog7-55" target="162rXYACJ4V5PbVNqog7-57" edge="1">
          <mxGeometry relative="1" as="geometry" />
        </mxCell>
        <mxCell id="162rXYACJ4V5PbVNqog7-55" value="&lt;p style=&quot;margin: 0px; font-variant-numeric: normal; font-variant-east-asian: normal; font-variant-alternates: normal; font-kerning: auto; font-optical-sizing: auto; font-feature-settings: normal; font-variation-settings: normal; font-variant-position: normal; font-stretch: normal; line-height: normal;&quot; class=&quot;p1&quot;&gt;&lt;font style=&quot;font-size: 12px;&quot;&gt;Receive Orderin OMD&lt;/font&gt;&lt;/p&gt;" style="rounded=1;whiteSpace=wrap;html=1;align=center;fillColor=#fff2cc;strokeColor=#d6b656;" parent="1" vertex="1">
          <mxGeometry x="1140" y="820" width="100" height="60" as="geometry" />
        </mxCell>
        <mxCell id="162rXYACJ4V5PbVNqog7-64" style="edgeStyle=orthogonalEdgeStyle;rounded=0;orthogonalLoop=1;jettySize=auto;html=1;entryX=0;entryY=0.5;entryDx=0;entryDy=0;" parent="1" source="162rXYACJ4V5PbVNqog7-57" target="162rXYACJ4V5PbVNqog7-58" edge="1">
          <mxGeometry relative="1" as="geometry" />
        </mxCell>
        <mxCell id="162rXYACJ4V5PbVNqog7-57" value="&lt;p style=&quot;margin: 0px; font-variant-numeric: normal; font-variant-east-asian: normal; font-variant-alternates: normal; font-kerning: auto; font-optical-sizing: auto; font-feature-settings: normal; font-variation-settings: normal; font-variant-position: normal; font-stretch: normal; line-height: normal;&quot; class=&quot;p1&quot;&gt;&lt;font style=&quot;font-size: 12px;&quot;&gt;OMD Analysis step (AML)&lt;/font&gt;&lt;/p&gt;" style="rounded=1;whiteSpace=wrap;html=1;align=center;fillColor=#fff2cc;strokeColor=#d6b656;" parent="1" vertex="1">
          <mxGeometry x="1300" y="820" width="100" height="60" as="geometry" />
        </mxCell>
        <mxCell id="162rXYACJ4V5PbVNqog7-65" style="edgeStyle=orthogonalEdgeStyle;rounded=0;orthogonalLoop=1;jettySize=auto;html=1;entryX=0.5;entryY=1;entryDx=0;entryDy=0;" parent="1" source="162rXYACJ4V5PbVNqog7-58" target="162rXYACJ4V5PbVNqog7-39" edge="1">
          <mxGeometry relative="1" as="geometry" />
        </mxCell>
        <mxCell id="162rXYACJ4V5PbVNqog7-113" style="edgeStyle=orthogonalEdgeStyle;rounded=0;orthogonalLoop=1;jettySize=auto;html=1;entryX=0.5;entryY=1;entryDx=0;entryDy=0;" parent="1" source="162rXYACJ4V5PbVNqog7-58" target="162rXYACJ4V5PbVNqog7-31" edge="1">
          <mxGeometry relative="1" as="geometry">
            <mxPoint x="1510" y="960" as="targetPoint" />
            <Array as="points">
              <mxPoint x="1590" y="850" />
              <mxPoint x="1590" y="950" />
              <mxPoint x="1030" y="950" />
            </Array>
          </mxGeometry>
        </mxCell>
        <mxCell id="162rXYACJ4V5PbVNqog7-58" value="&lt;p style=&quot;margin: 0px; font-variant-numeric: normal; font-variant-east-asian: normal; font-variant-alternates: normal; font-kerning: auto; font-optical-sizing: auto; font-feature-settings: normal; font-variation-settings: normal; font-variant-position: normal; font-stretch: normal; line-height: normal;&quot; class=&quot;p1&quot;&gt;&lt;font style=&quot;font-size: 12px;&quot;&gt;Update Order&lt;/font&gt;&lt;/p&gt;" style="rounded=1;whiteSpace=wrap;html=1;align=center;fillColor=#d5e8d4;strokeColor=#82b366;" parent="1" vertex="1">
          <mxGeometry x="1460" y="820" width="100" height="60" as="geometry" />
        </mxCell>
        <mxCell id="162rXYACJ4V5PbVNqog7-71" style="edgeStyle=orthogonalEdgeStyle;rounded=0;orthogonalLoop=1;jettySize=auto;html=1;entryX=0;entryY=0.5;entryDx=0;entryDy=0;" parent="1" source="162rXYACJ4V5PbVNqog7-59" target="162rXYACJ4V5PbVNqog7-61" edge="1">
          <mxGeometry relative="1" as="geometry" />
        </mxCell>
        <mxCell id="162rXYACJ4V5PbVNqog7-59" value="&lt;p style=&quot;margin: 0px; font-variant-numeric: normal; font-variant-east-asian: normal; font-variant-alternates: normal; font-kerning: auto; font-optical-sizing: auto; font-feature-settings: normal; font-variation-settings: normal; font-variant-position: normal; font-stretch: normal; line-height: normal;&quot; class=&quot;p1&quot;&gt;&lt;font style=&quot;font-size: 12px;&quot;&gt;Send Order Creation email&lt;/font&gt;&lt;/p&gt;" style="rounded=1;whiteSpace=wrap;html=1;align=center;fillColor=#fff2cc;strokeColor=#d6b656;" parent="1" vertex="1">
          <mxGeometry x="1940" y="820" width="100" height="60" as="geometry" />
        </mxCell>
        <mxCell id="162rXYACJ4V5PbVNqog7-70" style="edgeStyle=orthogonalEdgeStyle;rounded=0;orthogonalLoop=1;jettySize=auto;html=1;entryX=0;entryY=0.5;entryDx=0;entryDy=0;" parent="1" source="162rXYACJ4V5PbVNqog7-60" target="162rXYACJ4V5PbVNqog7-59" edge="1">
          <mxGeometry relative="1" as="geometry" />
        </mxCell>
        <mxCell id="162rXYACJ4V5PbVNqog7-60" value="&lt;p style=&quot;margin: 0px; font-variant-numeric: normal; font-variant-east-asian: normal; font-variant-alternates: normal; font-kerning: auto; font-optical-sizing: auto; font-feature-settings: normal; font-variation-settings: normal; font-variant-position: normal; font-stretch: normal; line-height: normal;&quot; class=&quot;p1&quot;&gt;&lt;font style=&quot;font-size: 12px;&quot;&gt;SCHEDULE HANDOVER&lt;/font&gt;&lt;/p&gt;" style="rounded=1;whiteSpace=wrap;html=1;align=center;fillColor=#d5e8d4;strokeColor=#82b366;" parent="1" vertex="1">
          <mxGeometry x="1780" y="820" width="100" height="60" as="geometry" />
        </mxCell>
        <mxCell id="162rXYACJ4V5PbVNqog7-75" style="edgeStyle=orthogonalEdgeStyle;rounded=0;orthogonalLoop=1;jettySize=auto;html=1;entryX=0;entryY=0.5;entryDx=0;entryDy=0;" parent="1" source="162rXYACJ4V5PbVNqog7-61" target="162rXYACJ4V5PbVNqog7-73" edge="1">
          <mxGeometry relative="1" as="geometry">
            <Array as="points">
              <mxPoint x="2150" y="181" />
            </Array>
          </mxGeometry>
        </mxCell>
        <mxCell id="162rXYACJ4V5PbVNqog7-61" value="&lt;p style=&quot;margin: 0px; font-variant-numeric: normal; font-variant-east-asian: normal; font-variant-alternates: normal; font-kerning: auto; font-optical-sizing: auto; font-feature-settings: normal; font-variation-settings: normal; font-variant-position: normal; font-stretch: normal; line-height: normal;&quot; class=&quot;p1&quot;&gt;&lt;font style=&quot;font-size: 12px;&quot;&gt;PROCESS PAYMENT&lt;/font&gt;&lt;/p&gt;" style="rounded=1;whiteSpace=wrap;html=1;align=center;fillColor=#d5e8d4;strokeColor=#82b366;" parent="1" vertex="1">
          <mxGeometry x="2100" y="820" width="100" height="60" as="geometry" />
        </mxCell>
        <mxCell id="162rXYACJ4V5PbVNqog7-72" style="edgeStyle=orthogonalEdgeStyle;rounded=0;orthogonalLoop=1;jettySize=auto;html=1;entryX=0.5;entryY=0;entryDx=0;entryDy=0;" parent="1" source="162rXYACJ4V5PbVNqog7-73" target="162rXYACJ4V5PbVNqog7-74" edge="1">
          <mxGeometry relative="1" as="geometry" />
        </mxCell>
        <mxCell id="162rXYACJ4V5PbVNqog7-73" value="&lt;p style=&quot;margin: 0px; font-variant-numeric: normal; font-variant-east-asian: normal; font-variant-alternates: normal; font-kerning: auto; font-optical-sizing: auto; font-feature-settings: normal; font-variation-settings: normal; font-variant-position: normal; font-stretch: normal; line-height: normal;&quot; class=&quot;p1&quot;&gt;&lt;font style=&quot;font-size: 12px;&quot;&gt;RECEIVE VEHICLE&lt;/font&gt;&lt;/p&gt;" style="rounded=1;whiteSpace=wrap;html=1;align=center;" parent="1" vertex="1">
          <mxGeometry x="2260" y="151" width="100" height="60" as="geometry" />
        </mxCell>
        <mxCell id="162rXYACJ4V5PbVNqog7-74" value="&lt;p style=&quot;margin: 0px; font-variant-numeric: normal; font-variant-east-asian: normal; font-variant-alternates: normal; font-kerning: auto; font-optical-sizing: auto; font-feature-settings: normal; font-variation-settings: normal; font-variant-position: normal; font-stretch: normal; line-height: normal;&quot; class=&quot;p1&quot;&gt;&lt;font style=&quot;font-size: 12px;&quot;&gt;BLOCK VEHICLE&lt;/font&gt;&lt;/p&gt;" style="rounded=1;whiteSpace=wrap;html=1;align=center;fillColor=#d5e8d4;strokeColor=#82b366;" parent="1" vertex="1">
          <mxGeometry x="2260" y="510" width="100" height="60" as="geometry" />
        </mxCell>
        <mxCell id="162rXYACJ4V5PbVNqog7-76" value="&lt;p style=&quot;margin: 0px; font-variant-numeric: normal; font-variant-east-asian: normal; font-variant-alternates: normal; font-kerning: auto; font-optical-sizing: auto; font-feature-settings: normal; font-variation-settings: normal; font-variant-position: normal; font-stretch: normal; font-size: 12px; line-height: normal; text-align: start;&quot; class=&quot;p1&quot;&gt;&lt;br&gt;&lt;/p&gt;" style="rounded=1;whiteSpace=wrap;html=1;fontSize=12;fillColor=#ffe6cc;strokeColor=#d79b00;" parent="1" vertex="1">
          <mxGeometry x="640" y="1060" width="40" height="40" as="geometry" />
        </mxCell>
        <mxCell id="162rXYACJ4V5PbVNqog7-77" value="VTP" style="text;html=1;align=left;verticalAlign=middle;resizable=0;points=[];autosize=1;strokeColor=none;fillColor=none;fontSize=20;" parent="1" vertex="1">
          <mxGeometry x="690" y="1060" width="60" height="40" as="geometry" />
        </mxCell>
        <mxCell id="162rXYACJ4V5PbVNqog7-78" value="&lt;p style=&quot;margin: 0px; font-variant-numeric: normal; font-variant-east-asian: normal; font-variant-alternates: normal; font-kerning: auto; font-optical-sizing: auto; font-feature-settings: normal; font-variation-settings: normal; font-variant-position: normal; font-stretch: normal; font-size: 12px; line-height: normal; text-align: start;&quot; class=&quot;p1&quot;&gt;&lt;br&gt;&lt;/p&gt;" style="rounded=1;whiteSpace=wrap;html=1;fontSize=12;fillColor=#dae8fc;strokeColor=#6c8ebf;" parent="1" vertex="1">
          <mxGeometry x="801" y="1061" width="40" height="40" as="geometry" />
        </mxCell>
        <mxCell id="162rXYACJ4V5PbVNqog7-79" value="Novo Mind e-Shop" style="text;align=left;verticalAlign=middle;resizable=0;points=[];autosize=1;strokeColor=none;fillColor=none;fontSize=20;html=1;" parent="1" vertex="1">
          <mxGeometry x="851" y="1061" width="190" height="40" as="geometry" />
        </mxCell>
        <mxCell id="162rXYACJ4V5PbVNqog7-80" value="&lt;p style=&quot;margin: 0px; font-variant-numeric: normal; font-variant-east-asian: normal; font-variant-alternates: normal; font-kerning: auto; font-optical-sizing: auto; font-feature-settings: normal; font-variation-settings: normal; font-variant-position: normal; font-stretch: normal; font-size: 12px; line-height: normal; text-align: start;&quot; class=&quot;p1&quot;&gt;&lt;br&gt;&lt;/p&gt;" style="rounded=1;whiteSpace=wrap;html=1;fontSize=12;fillColor=#d5e8d4;strokeColor=#82b366;" parent="1" vertex="1">
          <mxGeometry x="1081" y="1061" width="40" height="40" as="geometry" />
        </mxCell>
        <mxCell id="162rXYACJ4V5PbVNqog7-81" value="OMS" style="text;align=left;verticalAlign=middle;resizable=0;points=[];autosize=1;strokeColor=none;fillColor=none;fontSize=20;html=1;" parent="1" vertex="1">
          <mxGeometry x="1131" y="1061" width="70" height="40" as="geometry" />
        </mxCell>
        <mxCell id="162rXYACJ4V5PbVNqog7-82" value="&lt;p style=&quot;margin: 0px; font-variant-numeric: normal; font-variant-east-asian: normal; font-variant-alternates: normal; font-kerning: auto; font-optical-sizing: auto; font-feature-settings: normal; font-variation-settings: normal; font-variant-position: normal; font-stretch: normal; font-size: 12px; line-height: normal; text-align: start;&quot; class=&quot;p1&quot;&gt;&lt;br&gt;&lt;/p&gt;" style="rounded=1;whiteSpace=wrap;html=1;fontSize=12;fillColor=#fff2cc;strokeColor=#d6b656;" parent="1" vertex="1">
          <mxGeometry x="1240" y="1061" width="40" height="40" as="geometry" />
        </mxCell>
        <mxCell id="162rXYACJ4V5PbVNqog7-83" value="OMD" style="text;align=left;verticalAlign=middle;resizable=0;points=[];autosize=1;strokeColor=none;fillColor=none;fontSize=20;html=1;" parent="1" vertex="1">
          <mxGeometry x="1290" y="1061" width="70" height="40" as="geometry" />
        </mxCell>
        <mxCell id="162rXYACJ4V5PbVNqog7-84" value="&lt;p style=&quot;margin: 0px; font-variant-numeric: normal; font-variant-east-asian: normal; font-variant-alternates: normal; font-kerning: auto; font-optical-sizing: auto; font-feature-settings: normal; font-variation-settings: normal; font-variant-position: normal; font-stretch: normal; font-size: 12px; line-height: normal; text-align: start;&quot; class=&quot;p1&quot;&gt;&lt;br&gt;&lt;/p&gt;" style="rounded=1;whiteSpace=wrap;html=1;fontSize=12;fillColor=#e1d5e7;strokeColor=#9673a6;" parent="1" vertex="1">
          <mxGeometry x="1400" y="1060" width="40" height="40" as="geometry" />
        </mxCell>
        <mxCell id="162rXYACJ4V5PbVNqog7-85" value="Marketing Cloud" style="text;align=left;verticalAlign=middle;resizable=0;points=[];autosize=1;strokeColor=none;fillColor=none;fontSize=20;html=1;" parent="1" vertex="1">
          <mxGeometry x="1450" y="1060" width="170" height="40" as="geometry" />
        </mxCell>
        <mxCell id="162rXYACJ4V5PbVNqog7-90" value="&lt;p style=&quot;margin: 0px; font-variant-numeric: normal; font-variant-east-asian: normal; font-variant-alternates: normal; font-kerning: auto; font-optical-sizing: auto; font-feature-settings: normal; font-variation-settings: normal; font-variant-position: normal; font-stretch: normal; line-height: normal; text-align: start;&quot; class=&quot;p1&quot;&gt;&lt;span style=&quot;font-size: 24px;&quot;&gt;&lt;b&gt;Dealer&lt;/b&gt;&lt;/span&gt;&lt;/p&gt;" style="text;html=1;align=center;verticalAlign=middle;whiteSpace=wrap;rounded=0;textDirection=vertical-lr;rotation=-180;" parent="1" vertex="1">
          <mxGeometry y="780" width="160" height="180" as="geometry" />
        </mxCell>
        <mxCell id="162rXYACJ4V5PbVNqog7-92" value="A reserva do veÃ­culo entendo que alÃ©m de ser feita no OMS, tambÃ©m precisa ser feita no OMD, assim o veÃ­culo ficarÃ¡ bloqueado em todos os lugares, evitando que fique sÃ³ no OMS e quem alguÃ©m fature no OMD.Â " style="rounded=1;whiteSpace=wrap;html=1;" parent="1" vertex="1">
          <mxGeometry x="2570" y="210" width="530" height="60" as="geometry" />
        </mxCell>
        <mxCell id="162rXYACJ4V5PbVNqog7-93" value="A anÃ¡lise do AML Ã© feita na NSC dentro do OMD e nÃ£o no Dealer. Talvez tenhamos que ter duas caixinhas, uma com validaÃ§Ãµes do Dealer nos outros pontos e outra na NSC da validaÃ§Ã£o do AML." style="rounded=1;whiteSpace=wrap;html=1;" parent="1" vertex="1">
          <mxGeometry x="2570" y="300" width="530" height="60" as="geometry" />
        </mxCell>
        <mxCell id="162rXYACJ4V5PbVNqog7-94" value="No final, acredito que precisamos inverter a confirmaÃ§Ã£o do DTC vs. o Handover do veÃ­culo. Um vem antes que o outro." style="rounded=1;whiteSpace=wrap;html=1;" parent="1" vertex="1">
          <mxGeometry x="2570" y="390" width="530" height="60" as="geometry" />
        </mxCell>
        <mxCell id="162rXYACJ4V5PbVNqog7-95" value="" style="shape=image;verticalLabelPosition=bottom;labelBackgroundColor=default;verticalAlign=top;aspect=fixed;imageAspect=0;image=https://cdn.icon-icons.com/icons2/2699/PNG/512/mulesoft_logo_icon_170933.png;" parent="1" vertex="1">
          <mxGeometry x="1649" y="560" width="42" height="42" as="geometry" />
        </mxCell>
        <mxCell id="162rXYACJ4V5PbVNqog7-96" value="" style="shape=image;verticalLabelPosition=bottom;labelBackgroundColor=default;verticalAlign=top;aspect=fixed;imageAspect=0;image=https://cdn.icon-icons.com/icons2/2699/PNG/512/mulesoft_logo_icon_170933.png;" parent="1" vertex="1">
          <mxGeometry x="1490" y="870" width="41" height="41" as="geometry" />
        </mxCell>
        <mxCell id="162rXYACJ4V5PbVNqog7-97" value="" style="shape=image;verticalLabelPosition=bottom;labelBackgroundColor=default;verticalAlign=top;aspect=fixed;imageAspect=0;image=https://cdn.icon-icons.com/icons2/2699/PNG/512/mulesoft_logo_icon_170933.png;" parent="1" vertex="1">
          <mxGeometry x="1169" y="870" width="42" height="42" as="geometry" />
        </mxCell>
        <mxCell id="162rXYACJ4V5PbVNqog7-98" value="" style="shape=image;verticalLabelPosition=bottom;labelBackgroundColor=default;verticalAlign=top;aspect=fixed;imageAspect=0;image=https://cdn.icon-icons.com/icons2/2699/PNG/512/mulesoft_logo_icon_170933.png;" parent="1" vertex="1">
          <mxGeometry x="2129" y="870" width="42" height="42" as="geometry" />
        </mxCell>
        <mxCell id="162rXYACJ4V5PbVNqog7-99" value="" style="shape=image;verticalLabelPosition=bottom;labelBackgroundColor=default;verticalAlign=top;aspect=fixed;imageAspect=0;image=https://cdn.icon-icons.com/icons2/2699/PNG/512/mulesoft_logo_icon_170933.png;" parent="1" vertex="1">
          <mxGeometry x="1809" y="870" width="42" height="42" as="geometry" />
        </mxCell>
        <mxCell id="162rXYACJ4V5PbVNqog7-102" value="" style="shape=image;verticalLabelPosition=bottom;labelBackgroundColor=default;verticalAlign=top;aspect=fixed;imageAspect=0;image=https://cdn.icon-icons.com/icons2/2699/PNG/512/mulesoft_logo_icon_170933.png;" parent="1" vertex="1">
          <mxGeometry x="1969" y="870" width="42" height="42" as="geometry" />
        </mxCell>
        <mxCell id="162rXYACJ4V5PbVNqog7-103" value="" style="shape=image;html=1;verticalAlign=top;verticalLabelPosition=bottom;labelBackgroundColor=#ffffff;imageAspect=0;aspect=fixed;image=https://cdn4.iconfinder.com/data/icons/evil-icons-user-interface/64/download-128.png" parent="1" vertex="1">
          <mxGeometry x="1320" y="860.5" width="60" height="60" as="geometry" />
        </mxCell>
        <mxCell id="162rXYACJ4V5PbVNqog7-104" value="" style="html=1;verticalLabelPosition=bottom;align=center;labelBackgroundColor=#ffffff;verticalAlign=top;strokeWidth=2;strokeColor=#0080F0;shadow=0;dashed=0;shape=mxgraph.ios7.icons.user;" parent="1" vertex="1">
          <mxGeometry x="1851" y="130" width="30" height="30" as="geometry" />
        </mxCell>
        <mxCell id="162rXYACJ4V5PbVNqog7-105" value="" style="html=1;verticalLabelPosition=bottom;align=center;labelBackgroundColor=#ffffff;verticalAlign=top;strokeWidth=2;strokeColor=#0080F0;shadow=0;dashed=0;shape=mxgraph.ios7.icons.user;" parent="1" vertex="1">
          <mxGeometry x="1851" y="490" width="30" height="30" as="geometry" />
        </mxCell>
        <mxCell id="162rXYACJ4V5PbVNqog7-106" value="" style="html=1;verticalLabelPosition=bottom;align=center;labelBackgroundColor=#ffffff;verticalAlign=top;strokeWidth=2;strokeColor=#0080F0;shadow=0;dashed=0;shape=mxgraph.ios7.icons.user;" parent="1" vertex="1">
          <mxGeometry x="1691" y="490" width="30" height="30" as="geometry" />
        </mxCell>
        <mxCell id="162rXYACJ4V5PbVNqog7-107" value="" style="html=1;verticalLabelPosition=bottom;align=center;labelBackgroundColor=#ffffff;verticalAlign=top;strokeWidth=2;strokeColor=#0080F0;shadow=0;dashed=0;shape=mxgraph.ios7.icons.user;" parent="1" vertex="1">
          <mxGeometry x="1531" y="602" width="30" height="30" as="geometry" />
        </mxCell>
        <mxCell id="162rXYACJ4V5PbVNqog7-108" value="" style="html=1;verticalLabelPosition=bottom;align=center;labelBackgroundColor=#ffffff;verticalAlign=top;strokeWidth=2;strokeColor=#0080F0;shadow=0;dashed=0;shape=mxgraph.ios7.icons.user;" parent="1" vertex="1">
          <mxGeometry x="1530" y="797" width="30" height="30" as="geometry" />
        </mxCell>
        <mxCell id="162rXYACJ4V5PbVNqog7-109" value="" style="html=1;verticalLabelPosition=bottom;align=center;labelBackgroundColor=#ffffff;verticalAlign=top;strokeWidth=2;strokeColor=#0080F0;shadow=0;dashed=0;shape=mxgraph.ios7.icons.user;" parent="1" vertex="1">
          <mxGeometry x="1370" y="797" width="30" height="30" as="geometry" />
        </mxCell>
        <mxCell id="162rXYACJ4V5PbVNqog7-110" value="" style="html=1;verticalLabelPosition=bottom;align=center;labelBackgroundColor=#ffffff;verticalAlign=top;strokeWidth=2;strokeColor=#0080F0;shadow=0;dashed=0;shape=mxgraph.ios7.icons.user;" parent="1" vertex="1">
          <mxGeometry x="2171" y="797" width="30" height="30" as="geometry" />
        </mxCell>
        <mxCell id="162rXYACJ4V5PbVNqog7-111" value="" style="html=1;verticalLabelPosition=bottom;align=center;labelBackgroundColor=#ffffff;verticalAlign=top;strokeWidth=2;strokeColor=#0080F0;shadow=0;dashed=0;shape=mxgraph.ios7.icons.user;" parent="1" vertex="1">
          <mxGeometry x="2011" y="797" width="30" height="30" as="geometry" />
        </mxCell>
        <mxCell id="162rXYACJ4V5PbVNqog7-112" value="" style="html=1;verticalLabelPosition=bottom;align=center;labelBackgroundColor=#ffffff;verticalAlign=top;strokeWidth=2;strokeColor=#0080F0;shadow=0;dashed=0;shape=mxgraph.ios7.icons.user;" parent="1" vertex="1">
          <mxGeometry x="1850" y="797" width="30" height="30" as="geometry" />
        </mxCell>
        <mxCell id="162rXYACJ4V5PbVNqog7-114" value="" style="shape=image;verticalLabelPosition=bottom;labelBackgroundColor=default;verticalAlign=top;aspect=fixed;imageAspect=0;image=https://cdn.icon-icons.com/icons2/2699/PNG/512/mulesoft_logo_icon_170933.png;" parent="1" vertex="1">
          <mxGeometry x="1640" y="1059" width="41" height="41" as="geometry" />
        </mxCell>
        <mxCell id="162rXYACJ4V5PbVNqog7-115" value="Mulesoft" style="text;align=left;verticalAlign=middle;resizable=0;points=[];autosize=1;strokeColor=none;fillColor=none;fontSize=20;html=1;" parent="1" vertex="1">
          <mxGeometry x="1691" y="1061" width="100" height="40" as="geometry" />
        </mxCell>
        <mxCell id="162rXYACJ4V5PbVNqog7-116" value="" style="html=1;verticalLabelPosition=bottom;align=center;labelBackgroundColor=#ffffff;verticalAlign=top;strokeWidth=2;strokeColor=#0080F0;shadow=0;dashed=0;shape=mxgraph.ios7.icons.user;" parent="1" vertex="1">
          <mxGeometry x="1815" y="1060" width="35" height="34.5" as="geometry" />
        </mxCell>
        <mxCell id="162rXYACJ4V5PbVNqog7-117" value="Manual Process" style="text;align=left;verticalAlign=middle;resizable=0;points=[];autosize=1;strokeColor=none;fillColor=none;fontSize=20;html=1;" parent="1" vertex="1">
          <mxGeometry x="1860" y="1057.25" width="170" height="40" as="geometry" />
        </mxCell>
      </root>
    </mxGraphModel>
  </diagram>
</mxfile>
